<?xml version="1.0" encoding="UTF-8" standalone="no"?>
<!-- Created with Inkscape (http://www.inkscape.org/) -->

<svg
   xmlns:dc="http://purl.org/dc/elements/1.1/"
   xmlns:cc="http://creativecommons.org/ns#"
   xmlns:rdf="http://www.w3.org/1999/02/22-rdf-syntax-ns#"
   xmlns:svg="http://www.w3.org/2000/svg"
   xmlns="http://www.w3.org/2000/svg"
   xmlns:sodipodi="http://sodipodi.sourceforge.net/DTD/sodipodi-0.dtd"
   xmlns:inkscape="http://www.inkscape.org/namespaces/inkscape"
   width="297mm"
   height="210mm"
   viewBox="0 0 297 210"
   version="1.1"
   id="svg8"
   inkscape:version="0.92.4 (5da689c313, 2019-01-14)"
   sodipodi:docname="logo.svg">
  <defs
     id="defs2" />
  <sodipodi:namedview
     id="base"
     pagecolor="#ffffff"
     bordercolor="#666666"
     borderopacity="1.0"
     inkscape:pageopacity="0.0"
     inkscape:pageshadow="2"
     inkscape:zoom="1"
     inkscape:cx="238.86825"
     inkscape:cy="579.96741"
     inkscape:document-units="mm"
     inkscape:current-layer="layer1"
     showgrid="false"
     inkscape:window-width="1920"
     inkscape:window-height="1001"
     inkscape:window-x="-9"
     inkscape:window-y="-9"
     inkscape:window-maximized="1" />
  <metadata
     id="metadata5">
    <rdf:RDF>
      <cc:Work
         rdf:about="">
        <dc:format>image/svg+xml</dc:format>
        <dc:type
           rdf:resource="http://purl.org/dc/dcmitype/StillImage" />
        <dc:title />
      </cc:Work>
    </rdf:RDF>
  </metadata>
  <g
     inkscape:label="Layer 1"
     inkscape:groupmode="layer"
     id="layer1"
     transform="translate(0,-87)">
    <path
       style="fill:none;stroke:#ff0066;stroke-width:1.7580533;stroke-linecap:round;stroke-linejoin:round;stroke-miterlimit:4;stroke-dasharray:none;stroke-opacity:1"
       d="m 60.537029,185.53958 c 31.749914,31.13526 77.579911,2.68448 160.820281,0.37354"
       id="path3746"
       inkscape:connector-curvature="0"
       sodipodi:nodetypes="cc"
       inkscape:export-filename="C:\Users\juj000o\Pictures\logo.png"
       inkscape:export-xdpi="96"
       inkscape:export-ydpi="96" />
    <text
       xml:space="preserve"
       style="font-style:normal;font-weight:normal;font-size:18.03844261px;line-height:1.25;font-family:sans-serif;letter-spacing:0px;word-spacing:0px;fill:#ff0066;fill-opacity:1;stroke:none;stroke-width:0.45096102;"
       x="91.943947"
       y="145.1832"
       id="text822"
       inkscape:export-filename="C:\Users\juj000o\Pictures\logo.png"
       inkscape:export-xdpi="96"
       inkscape:export-ydpi="96"><tspan
         sodipodi:role="line"
         id="tspan820"
         x="91.943947"
         y="145.1832"
         style="font-style:normal;font-variant:normal;font-weight:900;font-stretch:normal;font-size:15.03203583px;line-height:1;font-family:Bogle;-inkscape-font-specification:'Bogle Heavy';fill:#ff0066;stroke:none;stroke-width:0.45096102;fill-opacity:1;">  FLIGHT DECK</tspan><tspan
         sodipodi:role="line"
         x="91.943947"
         y="181.98834"
         style="font-style:normal;font-variant:normal;font-weight:normal;font-stretch:normal;font-size:43.29225922px;line-height:1;font-family:Milkshake;-inkscape-font-specification:Milkshake;fill:#ff0066;stroke:none;stroke-width:0.45096102;fill-opacity:1;"
         id="tspan824">Studios</tspan></text>
    <path
       style="fill:#ff0066;stroke:#ff0066;stroke-width:0.57311958;stroke-linecap:round;stroke-linejoin:round;stroke-miterlimit:4;stroke-dasharray:none;stroke-opacity:1"
       d="m 83.489787,134.60826 c -1.486735,0.0115 -3.049898,0.59085 -4.482255,1.4822 l -13.81446,7.80655 -5.512196,-5.28478 c -1.899011,-2.06698 -4.995278,-2.17054 -6.924118,-0.2417 l -1.295571,1.29557 c -1.92884,1.92884 -1.825263,5.02511 0.241697,6.92412 l 5.284766,5.51218 -7.806961,13.81447 c -1.677803,2.6962 -2.249846,5.85626 -0.01008,8.09602 l 1.377671,1.37767 c 0.07352,0.0736 0.149044,0.1441 0.225411,0.21283 l 6.229484,6.37472 -2.197555,-4.60986 c 1.74994,0.28015 2.856176,-0.25691 4.212848,-1.61358 l 10.558526,-11.16634 5.544508,4.50516 -3.244785,5.39097 c -1.273382,1.27338 -1.255671,3.34159 0.03988,4.63715 l 1.477823,1.4774 c 1.295557,1.29555 3.363348,1.31323 4.636734,0.0398 l 15.698355,-15.69834 c 1.273376,-1.27339 1.256127,-3.34158 -0.0395,-4.63714 l -1.477816,-1.47741 c -1.295557,-1.29555 -3.161139,-1.07204 -4.637145,-0.0403 l -6.139313,3.99357 -4.505174,-5.54451 11.914695,-11.30689 c 1.405695,-1.3265 1.932214,-2.45913 1.625334,-4.23342 l 4.61488,2.20134 -6.391497,-6.21312 c -0.06875,-0.0764 -0.139407,-0.15157 -0.212818,-0.22498 l -1.377247,-1.37767 c -1.049892,-1.04989 -2.302362,-1.48184 -3.61418,-1.4717 z m -2.952207,3.40683 c 0.702496,0.0103 1.373332,0.29396 1.870051,0.79083 1.054498,1.05448 1.054496,2.76413 -10e-7,3.8186 -1.054471,1.0545 -2.76413,1.0545 -3.818603,0 -1.054499,-1.05447 -1.054501,-2.76413 -2e-6,-3.8186 0.515959,-0.5161 1.218854,-0.80138 1.948555,-0.79083 z m -2.977397,7.21911 c 0.70235,0.0104 1.373018,0.29408 1.869634,0.79084 1.054493,1.05447 1.054501,2.76414 3e-6,3.8186 -1.054471,1.0545 -2.764137,1.0545 -3.818604,1e-5 -1.054497,-1.05447 -1.0545,-2.76414 -2e-6,-3.81861 0.516055,-0.51621 1.219124,-0.80149 1.948969,-0.79084 z m -22.748762,16.32341 2.364119,2.36412 2.364543,-2.36411 2.364119,2.36412 -2.36412,2.36411 2.36412,2.36412 -2.36412,2.36412 -2.364543,-2.36412 -2.364119,2.36412 -2.364119,-2.36412 2.36412,-2.36412 -2.364119,-2.36412 z"
       id="rect818"
       inkscape:connector-curvature="0"
       sodipodi:nodetypes="cccccccccscccccccccccccccccccccccccccccccccccccccccccccccccc"
       inkscape:export-filename="C:\Users\juj000o\Pictures\logo.png"
       inkscape:export-xdpi="96"
       inkscape:export-ydpi="96" />
  </g>
</svg>
