<?xml version="1.0" encoding="UTF-8" standalone="no"?>
<!-- Created with Inkscape (http://www.inkscape.org/) -->

<svg
   xmlns:dc="http://purl.org/dc/elements/1.1/"
   xmlns:cc="http://creativecommons.org/ns#"
   xmlns:rdf="http://www.w3.org/1999/02/22-rdf-syntax-ns#"
   xmlns:svg="http://www.w3.org/2000/svg"
   xmlns="http://www.w3.org/2000/svg"
   xmlns:xlink="http://www.w3.org/1999/xlink"
   xmlns:sodipodi="http://sodipodi.sourceforge.net/DTD/sodipodi-0.dtd"
   xmlns:inkscape="http://www.inkscape.org/namespaces/inkscape"
   width="210mm"
   height="297mm"
   viewBox="0 0 210 297"
   version="1.1"
   id="svg1706"
   inkscape:version="0.92.4 (5da689c313, 2019-01-14)"
   sodipodi:docname="splash.svg">
  <defs
     id="defs1700">
    <linearGradient
       id="linearGradient2335"
       inkscape:collect="always">
      <stop
         id="stop2331"
         offset="0"
         style="stop-color:#ffffff;stop-opacity:1" />
      <stop
         id="stop2333"
         offset="1"
         style="stop-color:#ffffff;stop-opacity:0" />
    </linearGradient>
    <linearGradient
       gradientTransform="translate(-108.74374,-9.0525337)"
       inkscape:collect="always"
       xlink:href="#linearGradient2335"
       id="linearGradient4804"
       x1="195.6012"
       y1="115.99171"
       x2="195.6012"
       y2="133.76514"
       gradientUnits="userSpaceOnUse" />
    <linearGradient
       inkscape:collect="always"
       id="linearGradient4802">
      <stop
         style="stop-color:#ff0066;stop-opacity:1;"
         offset="0"
         id="stop4798" />
      <stop
         style="stop-color:#ff0066;stop-opacity:0;"
         offset="1"
         id="stop4800" />
    </linearGradient>
    <linearGradient
       inkscape:collect="always"
       xlink:href="#linearGradient4802"
       id="linearGradient2315"
       gradientUnits="userSpaceOnUse"
       gradientTransform="translate(-108.74374,75.404637)"
       x1="195.6012"
       y1="115.99171"
       x2="195.6012"
       y2="133.76514" />
    <filter
       inkscape:collect="always"
       style="color-interpolation-filters:sRGB"
       id="filter1138"
       x="-0.014428572"
       width="1.0288571"
       y="-0.071294108"
       height="1.1425882">
      <feGaussianBlur
         inkscape:collect="always"
         stdDeviation="0.50500021"
         id="feGaussianBlur1140" />
    </filter>
    <filter
       inkscape:collect="always"
       style="color-interpolation-filters:sRGB"
       id="filter1150"
       x="-0.014428572"
       width="1.0288571"
       y="-0.071294108"
       height="1.1425882">
      <feGaussianBlur
         inkscape:collect="always"
         stdDeviation="0.50500021"
         id="feGaussianBlur1152" />
    </filter>
  </defs>
  <sodipodi:namedview
     id="base"
     pagecolor="#ffffff"
     bordercolor="#666666"
     borderopacity="1.0"
     inkscape:pageopacity="0.0"
     inkscape:pageshadow="2"
     inkscape:zoom="1.4"
     inkscape:cx="238.17646"
     inkscape:cy="586.9201"
     inkscape:document-units="mm"
     inkscape:current-layer="layer1"
     showgrid="false"
     inkscape:window-width="1920"
     inkscape:window-height="1017"
     inkscape:window-x="-8"
     inkscape:window-y="-8"
     inkscape:window-maximized="1" />
  <metadata
     id="metadata1703">
    <rdf:RDF>
      <cc:Work
         rdf:about="">
        <dc:format>image/svg+xml</dc:format>
        <dc:type
           rdf:resource="http://purl.org/dc/dcmitype/StillImage" />
        <dc:title />
      </cc:Work>
    </rdf:RDF>
  </metadata>
  <g
     inkscape:label="Layer 1"
     inkscape:groupmode="layer"
     id="layer1">
    <rect
       style="fill:#666666;fill-opacity:1;stroke:none;stroke-width:0.30000001;stroke-linecap:round;stroke-linejoin:round;stroke-miterlimit:4;stroke-dasharray:none;stroke-dashoffset:0;stroke-opacity:1"
       id="rect939"
       width="147.10834"
       height="74.083336"
       x="21.695831"
       y="67.946426" />
    <path
       id="path1669-8"
       d="m 132.20712,118.84289 c -4.39022,-3.31708 -7.87303,-4.44379 -10.63412,-5.40423 -2.13837,-0.74135 -3.49698,-1.2977 -4.35796,-1.9888 -0.74224,-0.59578 -1.08223,-1.11987 -0.38808,-1.11821 0.87571,0.002 2.84333,0.77469 3.65439,1.10523 0.65984,0.25015 0.72814,0.0836 0.54865,-0.14362 0,0 -1.19001,-1.54853 -1.19001,-1.54853 -0.11585,-0.13721 -0.5457,-0.48743 -0.91879,-0.62326 -1.03844,-0.423 -3.60885,-1.42038 -5.2591,-1.42505 -2.44533,-0.007 -1.37474,1.89225 1.03721,3.89262 3.12984,2.59576 6.34521,3.83306 9.4636,4.94596 2.17772,0.77747 3.70866,1.4466 5.06975,2.50989 1.16464,0.90984 1.46191,1.57335 0.69952,1.57283 -1.20121,-7.9e-4 -3.3513,-0.95465 -4.48418,-1.44827 -0.40777,-0.18024 -0.7062,-0.18037 -0.4472,0.15463 0,0 1.74262,2.15778 1.74262,2.15778 0.29652,0.35799 0.65713,0.60867 1.08272,0.83217 1.23724,0.64973 4.58309,2.21682 7.18739,2.21682 2.94211,0 0.80122,-2.96216 -2.80641,-5.68796 0,0 0,0 0,0 m -14.67711,-3.70351 c -5.13851,-4.33543 -11.38263,-7.46424 -14.56682,-7.47327 -3.187603,-0.009 -2.58391,3.1101 1.77917,7.45305 4.97443,4.95148 12.66055,9.41169 16.68653,9.41169 4.02053,0 1.95798,-4.44996 -3.89888,-9.39147 0,0 0,0 0,0 m -2.84022,-0.004 c 2.99021,2.61124 3.92277,4.91663 1.8328,4.91505 -2.07242,-0.002 -6.19819,-2.31222 -8.92963,-4.92627 -2.56583,-2.45557 -3.05209,-4.35768 -1.23102,-4.35346 1.83666,0.004 5.51867,1.91155 8.32785,4.36468 0,0 0,0 0,0 m -18.813934,-6.94892 c -0.18298,-0.18771 -0.49064,-0.35602 -0.650891,-0.35646 0,0 -1.922348,-0.005 -1.922348,-0.005 -0.160311,-5.3e-4 -0.14823,0.1671 0.0273,0.35488 0,0 14.492003,15.49999 14.492003,15.49999 0.27315,0.29214 0.70246,0.55675 0.90385,0.55676 0,0 2.41369,1.2e-4 2.41369,1.2e-4 0.20109,1e-5 0.12416,-0.26444 -0.16049,-0.55643 0,0 -15.103152,-15.49347 -15.103152,-15.49347 0,0 0,0 0,0 m 1.76154,6.87569 c -3.780581,-4.1782 -9.090329,-7.25087 -12.19041,-7.25954 0,0 -3.923789,-0.011 -3.923789,-0.011 -0.16093,-5.3e-4 -0.163851,0.16737 -0.02291,0.35542 0,0 11.64369,15.53033 11.64369,15.53033 0.21957,0.29287 0.5807,0.55813 0.782911,0.55814 0,0 4.931269,2.4e-4 4.931269,2.4e-4 3.894871,2e-4 3.114901,-4.38193 -1.220808,-9.1736 0,0 0,0 0,0 m -2.965601,-0.005 c 2.364621,2.74032 2.946141,5.03183 0.78242,5.03022 0,0 -2.01251,-0.001 -2.01251,-0.001 0,0 -7.438211,-9.42416 -7.438211,-9.42416 0,0 1.764052,0.004 1.764052,0.004 1.89675,0.004 4.728509,1.8699 6.904249,4.39133 0,0 0,0 0,0 M 79.0425,108.14083 c -0.133789,-0.18812 -0.398399,-0.35678 -0.559401,-0.35723 0,0 -1.982748,-0.006 -1.982748,-0.006 -0.177321,-5.3e-4 -0.19337,0.16745 -0.0672,0.35562 0,0 6.01925,8.97941 6.01925,8.97941 1.232751,1.83899 0.93468,2.91286 -0.449409,2.91181 -1.365501,-0.001 -3.01902,-1.07721 -4.13658,-2.91751 0,0 -5.45623,-8.98474 -5.45623,-8.98474 -0.114321,-0.18827 -0.34568,-0.35701 -0.5232,-0.35751 0,0 -1.986341,-0.006 -1.986341,-0.006 -0.16156,-5.3e-4 -0.211479,0.16757 -0.104841,0.35589 0,0 5.201722,9.18574 5.201722,9.18574 2.2446,3.96374 6.684489,7.23065 9.88347,7.23065 3.2159,0 3.50016,-3.26081 0.685779,-7.21788 0,0 -6.524238,-9.17315 -6.524238,-9.17315 0,0 0,0 0,0 m -10.826613,-0.0297 c -0.101999,-0.18836 -0.322508,-0.3572 -0.500279,-0.3577 0,0 -7.186449,-0.0202 -7.186449,-0.0202 -0.178271,-5.3e-4 -0.23727,0.16777 -0.158382,0.35631 0,0 0.891201,2.12991 0.891201,2.12991 0.0848,0.20261 0.296929,0.3862 0.48319,0.38664 0,0 2.42139,0.006 2.42139,0.006 0,0 6.00678,13.0628 6.00678,13.0628 0.135181,0.29398 0.440891,0.56027 0.64484,0.56027 0,0 2.44453,1.3e-4 2.44453,1.3e-4 0.203671,1e-5 0.25472,-0.26611 0.107749,-0.55994 0,0 -6.530988,-13.05705 -6.530988,-13.05705 0,0 2.41645,0.006 2.41645,0.006 0.185838,5.3e-4 0.22175,-0.18235 0.112149,-0.38474 0,0 -1.152181,-2.12774 -1.152181,-2.12774 0,0 0,0 0,0 m -4.604179,10.66688 c -1.34653,-3.35079 -3.84199,-4.4882 -5.755891,-5.45745 -1.484238,-0.74795 -2.346039,-1.30914 -2.570588,-2.0061 -0.19354,-0.60073 -0.0437,-1.12903 0.664749,-1.12734 0.89375,0.002 2.17315,0.78104 2.689159,1.11435 0.437642,0.25223 0.665552,0.0843 0.69759,-0.14482 0,0 0.252042,-1.56098 0.252042,-1.56098 0.01159,-0.13829 -0.0957,-0.49121 -0.348382,-0.6281 -0.660638,-0.42622 -2.342668,-1.43095 -4.025548,-1.43573 -2.493672,-0.007 -3.20249,1.90631 -2.63557,3.92289 0.736179,2.61869 2.851629,3.86767 4.986769,4.9915 1.491241,0.78533 2.423379,1.46137 2.807329,2.53592 0.328631,0.91976 0.003,1.59064 -0.77783,1.59013 -1.229868,-8e-4 -2.525808,-0.9653 -3.217018,-1.46428 -0.246351,-0.18219 -0.551871,-0.18232 -0.605081,0.1563 0,0 -0.26656,2.18192 -0.26656,2.18192 -0.0367,0.36213 0.0945,0.61574 0.31799,0.84187 0.64998,0.65746 2.589029,2.24374 5.258771,2.24374 3.016009,0 3.635618,-2.99774 2.528069,-5.75382 0,0 0,0 0,0"
       style="font-style:normal;font-variant:normal;font-weight:900;font-stretch:normal;font-size:10.58333302px;line-height:1.25;font-family:Bogle;-inkscape-font-specification:'Bogle Heavy';letter-spacing:0px;word-spacing:0px;fill:url(#linearGradient4804);fill-opacity:1;stroke:none;stroke-width:0.26588738;filter:url(#filter1150)"
       inkscape:connector-curvature="0"
       inkscape:export-filename="C:\Users\juj000o\Documents\Office-Mice\Assets\Main Menu\splash_shadow.png"
       inkscape:export-xdpi="192.74123"
       inkscape:export-ydpi="192.74123" />
    <circle
       style="fill:#ffffff;fill-opacity:1;stroke:none;stroke-width:0.30000001;stroke-linecap:round;stroke-linejoin:round;stroke-miterlimit:4;stroke-dasharray:none;stroke-dashoffset:0;stroke-opacity:1"
       id="path937"
       cx="68.896004"
       cy="89.906845"
       r="12.5"
       inkscape:export-filename="C:\Users\juj000o\Documents\Office-Mice\Assets\Main Menu\splash_sun.png"
       inkscape:export-xdpi="192"
       inkscape:export-ydpi="192" />
    <path
       style="fill:#000000;stroke:none;stroke-width:0.65938073px;stroke-linecap:butt;stroke-linejoin:miter;stroke-opacity:1"
       d="m 60.739637,87.999149 -4.883431,-2.536903 1.52323,-0.103997 6.26059,2.11273 2.616681,-0.406744 c 0,0 1.349899,-0.434517 2.016858,-0.313506 0.300202,0.05447 0.600152,0.30247 0.932392,0.432838 0.405889,0.159268 0.819269,0.22441 0.832638,0.561826 0.02432,0.613607 -1.375949,0.925996 -1.375949,0.925996 l -4.739659,0.52819 -3.53705,1.968636 -0.952702,0.0679 1.624741,-1.652251 -5.411701,0.19208 -2.1576,-1.680575 0.919641,-0.28811 1.41482,0.81629 z"
       id="path858"
       inkscape:connector-curvature="0"
       sodipodi:nodetypes="cccccssscccccccccc"
       inkscape:export-filename="C:\Users\juj000o\Documents\Office-Mice\Assets\Main Menu\splash_plane.png"
       inkscape:export-xdpi="192"
       inkscape:export-ydpi="192" />
    <rect
       style="fill:#000000;fill-opacity:1;stroke:none;stroke-width:0.50078642;stroke-linecap:round;stroke-linejoin:round;stroke-miterlimit:4;stroke-dasharray:none;stroke-opacity:1"
       id="rect862"
       width="25"
       height="1.125"
       x="56.25626"
       y="96.658134"
       inkscape:export-filename="C:\Users\juj000o\Documents\Office-Mice\Assets\Main Menu\splash_fd.png"
       inkscape:export-xdpi="192"
       inkscape:export-ydpi="192" />
    <rect
       style="fill:#000000;fill-opacity:1;stroke:none;stroke-width:0.52899778;stroke-linecap:round;stroke-linejoin:round;stroke-miterlimit:4;stroke-dasharray:none;stroke-opacity:1"
       id="rect864"
       width="25"
       height="0.75"
       x="56.25626"
       y="95.25576"
       inkscape:export-filename="C:\Users\juj000o\Documents\Office-Mice\Assets\Main Menu\splash_fd.png"
       inkscape:export-xdpi="192"
       inkscape:export-ydpi="192" />
    <rect
       style="fill:#000000;fill-opacity:1;stroke:none;stroke-width:0.46438414;stroke-linecap:round;stroke-linejoin:round;stroke-miterlimit:4;stroke-dasharray:none;stroke-opacity:1"
       id="rect866"
       width="25"
       height="0.25"
       x="56.25626"
       y="94.329216"
       inkscape:export-filename="C:\Users\juj000o\Documents\Office-Mice\Assets\Main Menu\splash_fd.png"
       inkscape:export-xdpi="192"
       inkscape:export-ydpi="192" />
    <rect
       y="98.245613"
       x="56.25626"
       height="5.6607141"
       width="25"
       id="rect941"
       style="fill:#000000;fill-opacity:1;stroke:none;stroke-width:1.1233418;stroke-linecap:round;stroke-linejoin:round;stroke-miterlimit:4;stroke-dasharray:none;stroke-opacity:1"
       inkscape:export-filename="C:\Users\juj000o\Documents\Office-Mice\Assets\Main Menu\splash_fd.png"
       inkscape:export-xdpi="192"
       inkscape:export-ydpi="192" />
    <text
       xml:space="preserve"
       style="font-style:normal;font-variant:normal;font-weight:normal;font-stretch:normal;font-size:9.91791821px;line-height:1.25;font-family:Arial;-inkscape-font-specification:Arial;letter-spacing:0px;word-spacing:0px;fill:#ffffff;fill-opacity:1;stroke:none;stroke-width:0.24794793"
       x="51.970978"
       y="107.30343"
       id="text877"
       inkscape:export-filename="C:\Users\juj000o\Documents\Office-Mice\Assets\Main Menu\splash_fd.png"
       inkscape:export-xdpi="192"
       inkscape:export-ydpi="192"><tspan
         sodipodi:role="line"
         id="tspan875"
         x="51.970978"
         y="107.30343"
         style="font-style:normal;font-variant:normal;font-weight:bold;font-stretch:normal;font-family:Arial;-inkscape-font-specification:'Arial Bold';fill:#ffffff;fill-opacity:1;stroke-width:0.24794793">FLIGHT DECK</tspan></text>
    <rect
       style="fill:#000000;fill-opacity:1;stroke:none;stroke-width:0.4716984;stroke-linecap:round;stroke-linejoin:round;stroke-miterlimit:4;stroke-dasharray:none;stroke-opacity:1"
       id="rect966"
       width="2.4321525"
       height="9.0747108"
       x="72.637955"
       y="89.161186"
       inkscape:export-filename="C:\Users\juj000o\Documents\Office-Mice\Assets\Main Menu\splash_fd.png"
       inkscape:export-xdpi="192"
       inkscape:export-ydpi="192" />
    <path
       style="fill:#000000;fill-opacity:1;stroke:none;stroke-width:0.24960709px;stroke-linecap:butt;stroke-linejoin:miter;stroke-opacity:1"
       d="m 72.076996,90.009239 h 3.60146 l 0.70158,0.582782 -1.44994,2.331124 h -2.10474 l -1.356399,-2.247873 z"
       id="path968"
       inkscape:connector-curvature="0"
       inkscape:export-filename="C:\Users\juj000o\Documents\Office-Mice\Assets\Main Menu\splash_fd.png"
       inkscape:export-xdpi="192"
       inkscape:export-ydpi="192" />
    <rect
       style="fill:#000000;fill-opacity:1;stroke:none;stroke-width:0.48524278;stroke-linecap:round;stroke-linejoin:round;stroke-miterlimit:4;stroke-dasharray:none;stroke-opacity:1"
       id="rect970"
       width="0.26458332"
       height="1.7443701"
       x="73.973495"
       y="87.631523"
       inkscape:export-filename="C:\Users\juj000o\Documents\Office-Mice\Assets\Main Menu\splash_fd.png"
       inkscape:export-xdpi="192"
       inkscape:export-ydpi="192" />
    <path
       inkscape:export-ydpi="192.74123"
       inkscape:export-xdpi="192.74123"
       inkscape:export-filename="C:\Users\juj000o\Documents\Office-Mice\Assets\Main Menu\splash_shadow.png"
       inkscape:connector-curvature="0"
       style="font-style:normal;font-variant:normal;font-weight:900;font-stretch:normal;font-size:10.58333302px;line-height:1.25;font-family:Bogle;-inkscape-font-specification:'Bogle Heavy';letter-spacing:0px;word-spacing:0px;fill:url(#linearGradient2315);fill-opacity:1;stroke:none;stroke-width:0.26588738;filter:url(#filter1138)"
       d="m 132.20712,203.30006 c -4.39022,-3.31708 -7.87303,-4.44379 -10.63412,-5.40423 -2.13837,-0.74135 -3.49698,-1.2977 -4.35796,-1.9888 -0.74224,-0.59578 -1.08223,-1.11987 -0.38808,-1.11821 0.87571,0.002 2.84333,0.77469 3.65439,1.10523 0.65984,0.25015 0.72814,0.0836 0.54865,-0.14362 0,0 -1.19001,-1.54853 -1.19001,-1.54853 -0.11585,-0.13721 -0.5457,-0.48743 -0.91879,-0.62326 -1.03844,-0.423 -3.60885,-1.42038 -5.2591,-1.42505 -2.44533,-0.007 -1.37474,1.89225 1.03721,3.89262 3.12984,2.59576 6.34521,3.83306 9.4636,4.94596 2.17772,0.77747 3.70866,1.4466 5.06975,2.50989 1.16464,0.90984 1.46191,1.57335 0.69952,1.57283 -1.20121,-7.9e-4 -3.3513,-0.95465 -4.48418,-1.44827 -0.40777,-0.18024 -0.7062,-0.18037 -0.4472,0.15463 0,0 1.74262,2.15778 1.74262,2.15778 0.29652,0.35799 0.65713,0.60867 1.08272,0.83217 1.23724,0.64973 4.58309,2.21682 7.18739,2.21682 2.94211,0 0.80122,-2.96216 -2.80641,-5.68796 0,0 0,0 0,0 m -14.67711,-3.70351 c -5.13851,-4.33543 -11.38263,-7.46424 -14.56682,-7.47327 -3.187603,-0.009 -2.58391,3.1101 1.77917,7.45305 4.97443,4.95148 12.66055,9.41169 16.68653,9.41169 4.02053,0 1.95798,-4.44996 -3.89888,-9.39147 0,0 0,0 0,0 m -2.84022,-0.004 c 2.99021,2.61124 3.92277,4.91663 1.8328,4.91505 -2.07242,-0.002 -6.19819,-2.31222 -8.92963,-4.92627 -2.56583,-2.45557 -3.05209,-4.35768 -1.23102,-4.35346 1.83666,0.004 5.51867,1.91155 8.32785,4.36468 0,0 0,0 0,0 m -18.813934,-6.94892 c -0.18298,-0.18771 -0.49064,-0.35602 -0.650891,-0.35646 0,0 -1.922348,-0.005 -1.922348,-0.005 -0.160311,-5.3e-4 -0.14823,0.1671 0.0273,0.35488 0,0 14.492003,15.49999 14.492003,15.49999 0.27315,0.29214 0.70246,0.55675 0.90385,0.55676 0,0 2.41369,1.2e-4 2.41369,1.2e-4 0.20109,1e-5 0.12416,-0.26444 -0.16049,-0.55643 0,0 -15.103152,-15.49347 -15.103152,-15.49347 0,0 0,0 0,0 m 1.76154,6.87569 c -3.780581,-4.1782 -9.090329,-7.25087 -12.19041,-7.25954 0,0 -3.923789,-0.011 -3.923789,-0.011 -0.16093,-5.3e-4 -0.163851,0.16737 -0.02291,0.35542 0,0 11.64369,15.53033 11.64369,15.53033 0.21957,0.29287 0.5807,0.55813 0.782911,0.55814 0,0 4.931269,2.4e-4 4.931269,2.4e-4 3.894871,2e-4 3.114901,-4.38193 -1.220808,-9.1736 0,0 0,0 0,0 m -2.965601,-0.005 c 2.364621,2.74032 2.946141,5.03183 0.78242,5.03022 0,0 -2.01251,-10e-4 -2.01251,-10e-4 0,0 -7.438211,-9.42416 -7.438211,-9.42416 0,0 1.764052,0.004 1.764052,0.004 1.89675,0.004 4.728509,1.8699 6.904249,4.39133 0,0 0,0 0,0 M 79.0425,192.598 c -0.133789,-0.18812 -0.398399,-0.35678 -0.559401,-0.35723 0,0 -1.982748,-0.006 -1.982748,-0.006 -0.177321,-5.3e-4 -0.19337,0.16745 -0.0672,0.35562 0,0 6.01925,8.97941 6.01925,8.97941 1.232751,1.83899 0.93468,2.91286 -0.449409,2.91181 -1.365501,-10e-4 -3.01902,-1.07721 -4.13658,-2.91751 0,0 -5.45623,-8.98474 -5.45623,-8.98474 -0.114321,-0.18827 -0.34568,-0.35701 -0.5232,-0.35751 0,0 -1.986341,-0.006 -1.986341,-0.006 -0.16156,-5.3e-4 -0.211479,0.16757 -0.104841,0.35589 0,0 5.201722,9.18574 5.201722,9.18574 2.2446,3.96374 6.684489,7.23065 9.88347,7.23065 3.2159,0 3.50016,-3.26081 0.685779,-7.21788 0,0 -6.524238,-9.17315 -6.524238,-9.17315 0,0 0,0 0,0 M 68.21592,192.5674 c -0.101999,-0.18836 -0.322508,-0.3572 -0.500279,-0.3577 0,0 -7.186449,-0.0202 -7.186449,-0.0202 -0.178271,-5.3e-4 -0.23727,0.16777 -0.158382,0.35631 0,0 0.891201,2.12991 0.891201,2.12991 0.0848,0.20261 0.296929,0.3862 0.48319,0.38664 0,0 2.42139,0.006 2.42139,0.006 0,0 6.00678,13.0628 6.00678,13.0628 0.135181,0.29398 0.440891,0.56027 0.64484,0.56027 0,0 2.44453,1.3e-4 2.44453,1.3e-4 0.203671,1e-5 0.25472,-0.26611 0.107749,-0.55994 0,0 -6.530988,-13.05705 -6.530988,-13.05705 0,0 2.41645,0.006 2.41645,0.006 0.185838,5.3e-4 0.22175,-0.18235 0.112149,-0.38474 0,0 -1.152181,-2.12774 -1.152181,-2.12774 0,0 0,0 0,0 m -4.604179,10.66688 c -1.34653,-3.35079 -3.84199,-4.4882 -5.755891,-5.45745 -1.484238,-0.74795 -2.346039,-1.30914 -2.570588,-2.0061 -0.19354,-0.60073 -0.0437,-1.12903 0.664749,-1.12734 0.89375,0.002 2.17315,0.78104 2.689159,1.11435 0.437642,0.25223 0.665552,0.0843 0.69759,-0.14482 0,0 0.252042,-1.56098 0.252042,-1.56098 0.01159,-0.13829 -0.0957,-0.49121 -0.348382,-0.6281 -0.660638,-0.42622 -2.342668,-1.43095 -4.025548,-1.43573 -2.493672,-0.007 -3.20249,1.90631 -2.63557,3.92289 0.736179,2.61869 2.851629,3.86767 4.986769,4.9915 1.491241,0.78533 2.423379,1.46137 2.807329,2.53592 0.328631,0.91976 0.003,1.59064 -0.77783,1.59013 -1.229868,-8e-4 -2.525808,-0.9653 -3.217018,-1.46428 -0.246351,-0.18219 -0.551871,-0.18232 -0.605081,0.1563 0,0 -0.26656,2.18192 -0.26656,2.18192 -0.0367,0.36213 0.0945,0.61574 0.31799,0.84187 0.64998,0.65746 2.589029,2.24374 5.258771,2.24374 3.016009,0 3.635618,-2.99774 2.528069,-5.75382 0,0 0,0 0,0"
       id="path2291" />
    <path
       inkscape:export-ydpi="96"
       inkscape:export-xdpi="96"
       inkscape:export-filename="C:\Users\juj000o\Pictures\logo4.png"
       inkscape:connector-curvature="0"
       id="path2293"
       d="m 68.899876,161.87875 a 12.504234,12.504234 0 0 0 -12.50424,12.50424 12.504234,12.504234 0 0 0 3.181419,8.31008 h 18.648881 a 12.504234,12.504234 0 0 0 3.17817,-8.31008 12.504234,12.504234 0 0 0 -12.50423,-12.50424 z"
       style="fill:#ff0066;fill-opacity:1;stroke:none;stroke-width:1.05022442;stroke-linecap:round;stroke-linejoin:round;stroke-miterlimit:4;stroke-dasharray:none;stroke-opacity:1" />
    <path
       inkscape:export-ydpi="192"
       inkscape:export-xdpi="192"
       inkscape:export-filename="C:\Users\juj000o\Documents\Office-Mice\Assets\Main Menu\splash_plane.png"
       sodipodi:nodetypes="cccccssscccccccccc"
       inkscape:connector-curvature="0"
       id="path2295"
       d="m 60.739637,172.45632 -4.883431,-2.5369 1.52323,-0.104 6.26059,2.11273 2.616681,-0.40674 c 0,0 1.349899,-0.43452 2.016858,-0.31351 0.300202,0.0545 0.600152,0.30247 0.932392,0.43284 0.405889,0.15927 0.819269,0.22441 0.832638,0.56182 0.02432,0.61361 -1.375949,0.926 -1.375949,0.926 l -4.739659,0.52819 -3.53705,1.96864 -0.952702,0.0679 1.624741,-1.65226 -5.411701,0.19208 -2.1576,-1.68057 0.919641,-0.28811 1.41482,0.81629 z"
       style="fill:#ffffff;stroke:none;stroke-width:0.65938073px;stroke-linecap:butt;stroke-linejoin:miter;stroke-opacity:1" />
    <rect
       inkscape:export-ydpi="192"
       inkscape:export-xdpi="192"
       inkscape:export-filename="C:\Users\juj000o\Documents\Office-Mice\Assets\Main Menu\splash_fd.png"
       y="181.11531"
       x="56.25626"
       height="1.125"
       width="25"
       id="rect2297"
       style="fill:#ffffff;fill-opacity:1;stroke:none;stroke-width:0.50078642;stroke-linecap:round;stroke-linejoin:round;stroke-miterlimit:4;stroke-dasharray:none;stroke-opacity:1" />
    <rect
       inkscape:export-ydpi="192"
       inkscape:export-xdpi="192"
       inkscape:export-filename="C:\Users\juj000o\Documents\Office-Mice\Assets\Main Menu\splash_fd.png"
       y="179.71294"
       x="56.25626"
       height="0.75"
       width="25"
       id="rect2299"
       style="fill:#ffffff;fill-opacity:1;stroke:none;stroke-width:0.52899778;stroke-linecap:round;stroke-linejoin:round;stroke-miterlimit:4;stroke-dasharray:none;stroke-opacity:1" />
    <rect
       inkscape:export-ydpi="192"
       inkscape:export-xdpi="192"
       inkscape:export-filename="C:\Users\juj000o\Documents\Office-Mice\Assets\Main Menu\splash_fd.png"
       y="178.78639"
       x="56.25626"
       height="0.25"
       width="25"
       id="rect2301"
       style="fill:#ffffff;fill-opacity:1;stroke:none;stroke-width:0.46438414;stroke-linecap:round;stroke-linejoin:round;stroke-miterlimit:4;stroke-dasharray:none;stroke-opacity:1" />
    <text
       inkscape:export-ydpi="192"
       inkscape:export-xdpi="192"
       inkscape:export-filename="C:\Users\juj000o\Documents\Office-Mice\Assets\Main Menu\splash_fd.png"
       id="text2305"
       y="191.7606"
       x="51.970978"
       style="font-style:normal;font-variant:normal;font-weight:normal;font-stretch:normal;font-size:9.91791821px;line-height:1.25;font-family:Arial;-inkscape-font-specification:Arial;letter-spacing:0px;word-spacing:0px;fill:#ff0066;fill-opacity:1;stroke:none;stroke-width:0.24794793"
       xml:space="preserve"><tspan
         style="font-style:normal;font-variant:normal;font-weight:bold;font-stretch:normal;font-family:Arial;-inkscape-font-specification:'Arial Bold';fill:#ff0066;fill-opacity:1;stroke-width:0.24794793"
         y="191.7606"
         x="51.970978"
         id="tspan2303"
         sodipodi:role="line">FLIGHT DECK</tspan></text>
    <rect
       inkscape:export-ydpi="192"
       inkscape:export-xdpi="192"
       inkscape:export-filename="C:\Users\juj000o\Documents\Office-Mice\Assets\Main Menu\splash_fd.png"
       y="173.61836"
       x="72.637955"
       height="9.0747108"
       width="2.4321525"
       id="rect2307"
       style="fill:#ffffff;fill-opacity:1;stroke:none;stroke-width:0.4716984;stroke-linecap:round;stroke-linejoin:round;stroke-miterlimit:4;stroke-dasharray:none;stroke-opacity:1" />
    <path
       inkscape:export-ydpi="192"
       inkscape:export-xdpi="192"
       inkscape:export-filename="C:\Users\juj000o\Documents\Office-Mice\Assets\Main Menu\splash_fd.png"
       inkscape:connector-curvature="0"
       id="path2309"
       d="m 72.076996,174.46641 h 3.60146 l 0.70158,0.58278 -1.44994,2.33113 h -2.10474 l -1.356399,-2.24788 z"
       style="fill:#ffffff;fill-opacity:1;stroke:none;stroke-width:0.24960709px;stroke-linecap:butt;stroke-linejoin:miter;stroke-opacity:1" />
    <rect
       inkscape:export-ydpi="192"
       inkscape:export-xdpi="192"
       inkscape:export-filename="C:\Users\juj000o\Documents\Office-Mice\Assets\Main Menu\splash_fd.png"
       y="172.0887"
       x="73.973495"
       height="1.7443701"
       width="0.26458332"
       id="rect2311"
       style="fill:#ffffff;fill-opacity:1;stroke:none;stroke-width:0.48524278;stroke-linecap:round;stroke-linejoin:round;stroke-miterlimit:4;stroke-dasharray:none;stroke-opacity:1" />
    <rect
       inkscape:export-ydpi="192"
       inkscape:export-xdpi="192"
       inkscape:export-filename="C:\Users\juj000o\Documents\Office-Mice\Assets\Main Menu\splash_fd.png"
       style="fill:#ffffff;fill-opacity:1;stroke:none;stroke-width:0.50078642;stroke-linecap:round;stroke-linejoin:round;stroke-miterlimit:4;stroke-dasharray:none;stroke-opacity:1"
       id="rect2313"
       width="25"
       height="1.125"
       x="56.25626"
       y="182.70279" />
  </g>
</svg>
