<?xml version="1.0" encoding="UTF-8" standalone="no"?>
<!-- Created with Inkscape (http://www.inkscape.org/) -->

<svg
   xmlns:dc="http://purl.org/dc/elements/1.1/"
   xmlns:cc="http://creativecommons.org/ns#"
   xmlns:rdf="http://www.w3.org/1999/02/22-rdf-syntax-ns#"
   xmlns:svg="http://www.w3.org/2000/svg"
   xmlns="http://www.w3.org/2000/svg"
   xmlns:xlink="http://www.w3.org/1999/xlink"
   xmlns:sodipodi="http://sodipodi.sourceforge.net/DTD/sodipodi-0.dtd"
   xmlns:inkscape="http://www.inkscape.org/namespaces/inkscape"
   width="210mm"
   height="297mm"
   viewBox="0 0 210 297"
   version="1.1"
   id="svg949"
   inkscape:version="0.92.4 (5da689c313, 2019-01-14)"
   sodipodi:docname="title.svg">
  <defs
     id="defs943">
    <linearGradient
       inkscape:collect="always"
       xlink:href="#linearGradient4666"
       id="linearGradient4668"
       x1="-282.44846"
       y1="39.453957"
       x2="-287.38919"
       y2="48.105099"
       gradientUnits="userSpaceOnUse"
       gradientTransform="matrix(1.8556162,-1.0017999e-8,1.0017999e-8,1.8556162,342.01493,-1.5533593)" />
    <linearGradient
       inkscape:collect="always"
       id="linearGradient4666">
      <stop
         style="stop-color:#ffb380;stop-opacity:1;"
         offset="0"
         id="stop4662" />
      <stop
         style="stop-color:#ff6600;stop-opacity:1"
         offset="1"
         id="stop4664" />
    </linearGradient>
    <linearGradient
       inkscape:collect="always"
       xlink:href="#linearGradient4666"
       id="linearGradient4670"
       x1="107.05611"
       y1="264.33453"
       x2="102.03436"
       y2="272.9389"
       gradientUnits="userSpaceOnUse"
       gradientTransform="matrix(1.8556162,-2.3946967e-8,2.3946967e-8,1.8556162,-169.66222,-296.97028)" />
    <linearGradient
       inkscape:collect="always"
       xlink:href="#linearGradient4666"
       id="linearGradient4680"
       x1="224.88057"
       y1="175.39236"
       x2="224.8338"
       y2="185.35484"
       gradientUnits="userSpaceOnUse"
       gradientTransform="matrix(1.8556163,0,0,1.8556163,-295.41693,-172.35269)" />
    <linearGradient
       inkscape:collect="always"
       xlink:href="#linearGradient4666"
       id="linearGradient1656"
       gradientUnits="userSpaceOnUse"
       gradientTransform="matrix(1.8556163,0,0,1.8556163,-295.41693,-172.35269)"
       x1="224.88057"
       y1="175.39236"
       x2="224.8338"
       y2="185.35484" />
    <linearGradient
       inkscape:collect="always"
       xlink:href="#linearGradient4666"
       id="linearGradient1658"
       gradientUnits="userSpaceOnUse"
       gradientTransform="matrix(1.8556163,0,0,1.8556163,-295.41693,-172.35269)"
       x1="224.88057"
       y1="175.39236"
       x2="224.8338"
       y2="185.35484" />
    <linearGradient
       inkscape:collect="always"
       xlink:href="#linearGradient4666"
       id="linearGradient1660"
       gradientUnits="userSpaceOnUse"
       gradientTransform="matrix(1.8556163,0,0,1.8556163,-295.41693,-172.35269)"
       x1="224.88057"
       y1="175.39236"
       x2="224.8338"
       y2="185.35484" />
    <linearGradient
       inkscape:collect="always"
       xlink:href="#linearGradient4666"
       id="linearGradient1662"
       gradientUnits="userSpaceOnUse"
       gradientTransform="matrix(1.8556163,0,0,1.8556163,-295.41693,-172.35269)"
       x1="224.88057"
       y1="175.39236"
       x2="224.8338"
       y2="185.35484" />
    <linearGradient
       inkscape:collect="always"
       xlink:href="#linearGradient4666"
       id="linearGradient1664"
       gradientUnits="userSpaceOnUse"
       gradientTransform="matrix(1.8556163,0,0,1.8556163,-295.41693,-172.35269)"
       x1="224.88057"
       y1="175.39236"
       x2="224.8338"
       y2="185.35484" />
    <linearGradient
       inkscape:collect="always"
       xlink:href="#linearGradient4666"
       id="linearGradient1666"
       gradientUnits="userSpaceOnUse"
       gradientTransform="matrix(1.8556163,0,0,1.8556163,-295.41693,-172.35269)"
       x1="224.88057"
       y1="175.39236"
       x2="224.8338"
       y2="185.35484" />
    <linearGradient
       inkscape:collect="always"
       xlink:href="#linearGradient4666"
       id="linearGradient1668"
       gradientUnits="userSpaceOnUse"
       gradientTransform="matrix(1.8556163,0,0,1.8556163,-295.41693,-172.35269)"
       x1="224.88057"
       y1="175.39236"
       x2="224.8338"
       y2="185.35484" />
    <linearGradient
       inkscape:collect="always"
       xlink:href="#linearGradient4666"
       id="linearGradient1670"
       gradientUnits="userSpaceOnUse"
       gradientTransform="matrix(1.8556163,0,0,1.8556163,-295.41693,-172.35269)"
       x1="224.88057"
       y1="175.39236"
       x2="224.8338"
       y2="185.35484" />
    <linearGradient
       inkscape:collect="always"
       xlink:href="#linearGradient4666"
       id="linearGradient1672"
       gradientUnits="userSpaceOnUse"
       gradientTransform="matrix(1.8556163,0,0,1.8556163,-295.41693,-172.35269)"
       x1="224.88057"
       y1="175.39236"
       x2="224.8338"
       y2="185.35484" />
  </defs>
  <sodipodi:namedview
     id="base"
     pagecolor="#ffffff"
     bordercolor="#666666"
     borderopacity="1.0"
     inkscape:pageopacity="0.0"
     inkscape:pageshadow="2"
     inkscape:zoom="1.4"
     inkscape:cx="292.51768"
     inkscape:cy="548.76031"
     inkscape:document-units="mm"
     inkscape:current-layer="layer1"
     showgrid="false"
     inkscape:window-width="1920"
     inkscape:window-height="1017"
     inkscape:window-x="1912"
     inkscape:window-y="-8"
     inkscape:window-maximized="1" />
  <metadata
     id="metadata946">
    <rdf:RDF>
      <cc:Work
         rdf:about="">
        <dc:format>image/svg+xml</dc:format>
        <dc:type
           rdf:resource="http://purl.org/dc/dcmitype/StillImage" />
        <dc:title></dc:title>
      </cc:Work>
    </rdf:RDF>
  </metadata>
  <g
     inkscape:label="Layer 1"
     inkscape:groupmode="layer"
     id="layer1">
    <path
       inkscape:connector-curvature="0"
       id="path4581"
       style="font-style:normal;font-variant:normal;font-weight:900;font-stretch:normal;font-size:10.58333302px;line-height:1.25;font-family:Bogle;-inkscape-font-specification:'Bogle Heavy';letter-spacing:0px;word-spacing:0px;fill:url(#linearGradient1656);fill-opacity:1;stroke:#800000;stroke-width:0.55668491;stroke-miterlimit:4;stroke-dasharray:none;stroke-dashoffset:0"
       d="m 58.352894,165.21514 c 0,3.92773 3.12254,7.05027 7.05027,7.05027 3.927731,0 7.069901,-3.12254 7.069901,-7.05027 0,-3.92771 -3.14217,-7.08953 -7.069901,-7.08953 -3.92773,0 -7.05027,3.16182 -7.05027,7.08953 z m 3.14219,0 c 0,-2.16023 1.76748,-3.94736 3.90808,-3.94736 2.16025,0 3.927731,1.78713 3.927731,3.94736 0,2.14062 -1.767481,3.9081 -3.927731,3.9081 -2.1406,0 -3.90808,-1.76748 -3.90808,-3.9081 z"
       inkscape:export-filename="C:\Users\juj000o\Documents\Office-Mice\Assets\Main Menu\title.png"
       inkscape:export-xdpi="375.13"
       inkscape:export-ydpi="375.13" />
    <path
       inkscape:connector-curvature="0"
       id="path4583"
       style="font-style:normal;font-variant:normal;font-weight:900;font-stretch:normal;font-size:10.58333302px;line-height:1.25;font-family:Bogle;-inkscape-font-specification:'Bogle Heavy';letter-spacing:0px;word-spacing:0px;fill:url(#linearGradient1658);fill-opacity:1;stroke:#800000;stroke-width:0.55668491;stroke-miterlimit:4;stroke-dasharray:none;stroke-dashoffset:0"
       d="m 75.062905,171.63697 c 0,0.23566 0.21601,0.43206 0.43205,0.43206 h 2.10133 c 0.23567,0 0.45168,-0.1964 0.45168,-0.43206 v -5.9505 h 2.27808 c 0.23567,0 0.43205,-0.19638 0.43205,-0.43204 v -1.82639 c 0,-0.2553 -0.19638,-0.43205 -0.43205,-0.43205 h -2.27808 v -0.74627 c 0,-0.72662 0.11783,-1.29615 1.13905,-1.29615 0.45168,0 0.88374,0.17666 1.17832,0.3535 0.17665,0.0982 0.39276,0.0393 0.49095,-0.11784 l 0.96229,-1.68892 c 0.0982,-0.17666 0.0588,-0.41241 -0.0785,-0.51059 -0.39278,-0.37315 -1.59073,-0.86411 -2.76905,-0.86411 -2.63157,0 -3.90807,1.68893 -3.90807,4.12411 v 0.74627 h -0.78556 c -0.25529,0 -0.43204,0.17666 -0.43204,0.43205 v 1.82639 c 0,0.23566 0.17684,0.43204 0.43204,0.43204 h 0.78556 z"
       inkscape:export-filename="C:\Users\juj000o\Documents\Office-Mice\Assets\Main Menu\title.png"
       inkscape:export-xdpi="375.13"
       inkscape:export-ydpi="375.13" />
    <path
       inkscape:connector-curvature="0"
       id="path4585"
       style="font-style:normal;font-variant:normal;font-weight:900;font-stretch:normal;font-size:10.58333302px;line-height:1.25;font-family:Bogle;-inkscape-font-specification:'Bogle Heavy';letter-spacing:0px;word-spacing:0px;fill:url(#linearGradient1660);fill-opacity:1;stroke:#800000;stroke-width:0.55668491;stroke-miterlimit:4;stroke-dasharray:none;stroke-dashoffset:0"
       d="m 82.926005,171.63697 c 0,0.23566 0.21603,0.43206 0.43206,0.43206 h 2.10132 c 0.235669,0 0.451699,-0.1964 0.451699,-0.43206 v -5.9505 h 2.278081 c 0.235659,0 0.432041,-0.19638 0.432041,-0.43204 v -1.82639 c 0,-0.2553 -0.196382,-0.43205 -0.432041,-0.43205 h -2.278081 v -0.74627 c 0,-0.72662 0.11783,-1.29615 1.139031,-1.29615 0.451689,0 0.88374,0.17666 1.17832,0.3535 0.176649,0.0982 0.392771,0.0393 0.490971,-0.11784 l 0.96229,-1.68892 c 0.0982,-0.17666 0.059,-0.41241 -0.0785,-0.51059 -0.39278,-0.37315 -1.590728,-0.86411 -2.76905,-0.86411 -2.631579,0 -3.908089,1.68893 -3.908089,4.12411 v 0.74627 h -0.78554 c -0.2553,0 -0.43204,0.17666 -0.43204,0.43205 v 1.82639 c 0,0.23566 0.17684,0.43204 0.43204,0.43204 h 0.78554 z"
       inkscape:export-filename="C:\Users\juj000o\Documents\Office-Mice\Assets\Main Menu\title.png"
       inkscape:export-xdpi="375.13"
       inkscape:export-ydpi="375.13" />
    <path
       inkscape:connector-curvature="0"
       id="path4587"
       style="font-style:normal;font-variant:normal;font-weight:900;font-stretch:normal;font-size:10.58333302px;line-height:1.25;font-family:Bogle;-inkscape-font-specification:'Bogle Heavy';letter-spacing:0px;word-spacing:0px;fill:url(#linearGradient1662);fill-opacity:1;stroke:#800000;stroke-width:0.55668491;stroke-miterlimit:4;stroke-dasharray:none;stroke-dashoffset:0"
       d="m 90.062505,171.63697 c 0,0.23566 0.196379,0.43206 0.432041,0.43206 h 2.120969 c 0.235659,0 0.43204,-0.1964 0.43204,-0.43206 v -8.20893 c 0,-0.2553 -0.196381,-0.43205 -0.43204,-0.43205 h -2.120969 c -0.235662,0 -0.432041,0.17666 -0.432041,0.43205 z m 1.47289,-9.89786 c 0.942661,0 1.708561,-0.76591 1.708561,-1.68891 0,-0.94265 -0.7659,-1.72821 -1.708561,-1.72821 -0.942649,0 -1.68892,0.78556 -1.68892,1.72821 0,0.923 0.746271,1.68891 1.68892,1.68891 z"
       inkscape:export-filename="C:\Users\juj000o\Documents\Office-Mice\Assets\Main Menu\title.png"
       inkscape:export-xdpi="375.13"
       inkscape:export-ydpi="375.13" />
    <path
       inkscape:connector-curvature="0"
       id="path4589"
       style="font-style:normal;font-variant:normal;font-weight:900;font-stretch:normal;font-size:10.58333302px;line-height:1.25;font-family:Bogle;-inkscape-font-specification:'Bogle Heavy';letter-spacing:0px;word-spacing:0px;fill:url(#linearGradient1664);fill-opacity:1;stroke:#800000;stroke-width:0.55668491;stroke-miterlimit:4;stroke-dasharray:none;stroke-dashoffset:0"
       d="m 94.710395,167.53251 c 0,2.72976 2.19954,4.75253 4.79183,4.75253 1.629985,0 2.808315,-0.62842 3.652775,-1.88531 0.15717,-0.23566 0.0393,-0.45167 -0.15716,-0.64807 l -1.27652,-1.09975 c -0.11784,-0.15717 -0.3535,-0.11783 -0.51059,0.0785 -0.39278,0.39278 -0.78555,0.74628 -1.630014,0.74628 -1.04085,0 -1.885302,-0.84448 -1.885302,-1.94423 0,-1.02122 0.88374,-1.94422 1.92459,-1.94422 0.569506,0 1.021196,0.31421 1.394326,0.64808 0.17666,0.15717 0.41241,0.1375 0.51062,0.0393 l 1.2765,-1.23724 c 0.21601,-0.17665 0.29459,-0.43204 0.11783,-0.64807 -0.8641,-1.0212 -1.96387,-1.59073 -3.397476,-1.59073 -2.592298,0 -4.811469,2.06206 -4.811469,4.73292 z"
       inkscape:export-filename="C:\Users\juj000o\Documents\Office-Mice\Assets\Main Menu\title.png"
       inkscape:export-xdpi="375.13"
       inkscape:export-ydpi="375.13" />
    <path
       inkscape:connector-curvature="0"
       id="path4591"
       style="font-style:normal;font-variant:normal;font-weight:900;font-stretch:normal;font-size:10.58333302px;line-height:1.25;font-family:Bogle;-inkscape-font-specification:'Bogle Heavy';letter-spacing:0px;word-spacing:0px;fill:url(#linearGradient1666);fill-opacity:1;stroke:#800000;stroke-width:0.55668491;stroke-miterlimit:4;stroke-dasharray:none;stroke-dashoffset:0"
       d="m 104.01235,167.53251 c 0,2.80831 2.04242,4.75253 4.75253,4.75253 1.43363,0 2.57268,-0.49096 3.3582,-1.29615 0.1964,-0.19638 0.15719,-0.47132 0.0197,-0.64807 l -1.00156,-1.31578 c -0.13751,-0.17666 -0.37315,-0.17666 -0.56953,0 -0.39277,0.27494 -1.13903,0.56952 -1.72819,0.56952 -1.23723,0 -1.8853,-0.8641 -1.8853,-1.57109 h 5.59699 c 0.19639,0 0.41242,-0.15717 0.43205,-0.39278 0.0197,-0.1375 0.0393,-0.45167 0.0393,-0.58916 0,-2.49409 -2.00313,-4.24194 -4.30086,-4.24194 -2.69049,0 -4.71325,2.17989 -4.71325,4.73292 z m 3.27964,-1.23723 c 0.11783,-0.60881 0.60882,-1.1194 1.35506,-1.1194 0.76592,0 1.27652,0.51059 1.3158,1.1194 z"
       inkscape:export-filename="C:\Users\juj000o\Documents\Office-Mice\Assets\Main Menu\title.png"
       inkscape:export-xdpi="375.13"
       inkscape:export-ydpi="375.13" />
    <path
       inkscape:connector-curvature="0"
       id="path4593"
       style="font-style:normal;font-variant:normal;font-weight:900;font-stretch:normal;font-size:10.58333302px;line-height:1.25;font-family:Bogle;-inkscape-font-specification:'Bogle Heavy';letter-spacing:0px;word-spacing:0px;fill:url(#linearGradient1668);fill-opacity:1;stroke:#800000;stroke-width:0.55668491;stroke-miterlimit:4;stroke-dasharray:none;stroke-dashoffset:0"
       d="m 119.05368,171.63697 c -0.0393,0.25531 0.1375,0.43206 0.37313,0.43206 h 2.31736 c 0.1964,0 0.35348,-0.15717 0.37313,-0.31423 l 0.86409,-6.06833 h 0.0393 l 3.31892,10.29063 c 0.059,0.11784 0.21603,0.21604 0.33386,0.21604 h 0.35349 c 0.0982,0 0.27495,-0.0982 0.33387,-0.21604 l 3.29928,-10.29063 h 0.0393 l 0.88374,6.06833 c 0.0197,0.15717 0.1964,0.31423 0.37315,0.31423 h 2.31734 c 0.23567,0 0.41242,-0.17684 0.37313,-0.43206 l -2.21915,-13.19715 c -0.0197,-0.17665 -0.1964,-0.31421 -0.35349,-0.31421 h -0.31423 c -0.0982,0 -0.27492,0.0785 -0.33384,0.19638 l -4.55617,8.48388 h -0.0393 l -4.55616,-8.48388 c -0.059,-0.11783 -0.23567,-0.19638 -0.33386,-0.19638 h -0.31423 c -0.15716,0 -0.33383,0.1375 -0.35348,0.31421 z"
       sodipodi:nodetypes="cssccccssccccssccssccccsscc"
       inkscape:export-filename="C:\Users\juj000o\Documents\Office-Mice\Assets\Main Menu\title.png"
       inkscape:export-xdpi="375.13"
       inkscape:export-ydpi="375.13" />
    <path
       inkscape:connector-curvature="0"
       id="path4595"
       style="font-style:normal;font-variant:normal;font-weight:900;font-stretch:normal;font-size:10.58333302px;line-height:1.25;font-family:Bogle;-inkscape-font-specification:'Bogle Heavy';letter-spacing:0px;word-spacing:0px;fill:url(#linearGradient1670);fill-opacity:1;stroke:#800000;stroke-width:0.55668491;stroke-miterlimit:4;stroke-dasharray:none;stroke-dashoffset:0"
       d="m 136.39734,171.63697 c 0,0.23566 0.19637,0.43206 0.43204,0.43206 h 2.12096 c 0.23566,0 0.43205,-0.1964 0.43205,-0.43206 v -8.20893 c 0,-0.2553 -0.19639,-0.43205 -0.43205,-0.43205 h -2.12096 c -0.23567,0 -0.43204,0.17666 -0.43204,0.43205 z m 1.47289,-9.89786 c 0.94266,0 1.70856,-0.76591 1.70856,-1.68891 0,-0.94265 -0.7659,-1.72821 -1.70856,-1.72821 -0.94266,0 -1.68892,0.78556 -1.68892,1.72821 0,0.923 0.74626,1.68891 1.68892,1.68891 z"
       inkscape:export-filename="C:\Users\juj000o\Documents\Office-Mice\Assets\Main Menu\title.png"
       inkscape:export-xdpi="375.13"
       inkscape:export-ydpi="375.13" />
    <path
       inkscape:connector-curvature="0"
       id="path4597"
       style="font-style:normal;font-variant:normal;font-weight:900;font-stretch:normal;font-size:10.58333302px;line-height:1.25;font-family:Bogle;-inkscape-font-specification:'Bogle Heavy';letter-spacing:0px;word-spacing:0px;fill:url(#linearGradient1672);fill-opacity:1;stroke:#800000;stroke-width:0.55668491;stroke-miterlimit:4;stroke-dasharray:none;stroke-dashoffset:0"
       d="m 141.04523,167.53251 c 0,2.72976 2.19954,4.75253 4.79182,4.75253 1.62999,0 2.80832,-0.62842 3.65278,-1.88531 0.15717,-0.23566 0.0393,-0.45167 -0.15717,-0.64807 l -1.27651,-1.09975 c -0.11782,-0.15717 -0.35349,-0.11783 -0.51059,0.0785 -0.39277,0.39278 -0.78555,0.74628 -1.63001,0.74628 -1.04086,0 -1.88531,-0.84448 -1.88531,-1.94423 0,-1.02122 0.88374,-1.94422 1.92459,-1.94422 0.56951,0 1.02121,0.31421 1.39433,0.64808 0.17684,0.15717 0.41242,0.1375 0.51062,0.0393 l 1.2765,-1.23724 c 0.21602,-0.17665 0.29458,-0.43204 0.11783,-0.64807 -0.8641,-1.0212 -1.96387,-1.59073 -3.39748,-1.59073 -2.5923,0 -4.81147,2.06206 -4.81147,4.73292 z"
       inkscape:export-filename="C:\Users\juj000o\Documents\Office-Mice\Assets\Main Menu\title.png"
       inkscape:export-xdpi="375.13"
       inkscape:export-ydpi="375.13" />
    <path
       inkscape:connector-curvature="0"
       id="path4599"
       style="font-style:normal;font-variant:normal;font-weight:900;font-stretch:normal;font-size:10.58333302px;line-height:1.25;font-family:Bogle;-inkscape-font-specification:'Bogle Heavy';letter-spacing:0px;word-spacing:0px;fill:url(#linearGradient4680);fill-opacity:1;stroke:#800000;stroke-width:0.55668491;stroke-miterlimit:4;stroke-dasharray:none;stroke-dashoffset:0"
       d="m 150.34718,167.53251 c 0,2.80831 2.04242,4.75253 4.75255,4.75253 1.43361,0 2.57266,-0.49096 3.3582,-1.29615 0.19638,-0.19638 0.15717,-0.47132 0.0197,-0.64807 l -1.00156,-1.31578 c -0.13751,-0.17666 -0.37313,-0.17666 -0.56953,0 -0.39275,0.27494 -1.13902,0.56952 -1.72818,0.56952 -1.23723,0 -1.88531,-0.8641 -1.88531,-1.57109 h 5.597 c 0.19637,0 0.4124,-0.15717 0.43204,-0.39278 0.0197,-0.1375 0.0393,-0.45167 0.0393,-0.58916 0,-2.49409 -2.00315,-4.24194 -4.30086,-4.24194 -2.69049,0 -4.71326,2.17989 -4.71326,4.73292 z m 3.27967,-1.23723 c 0.11783,-0.60881 0.60879,-1.1194 1.35505,-1.1194 0.76591,0 1.2765,0.51059 1.31578,1.1194 z"
       inkscape:export-filename="C:\Users\juj000o\Documents\Office-Mice\Assets\Main Menu\title.png"
       inkscape:export-xdpi="375.13"
       inkscape:export-ydpi="375.13" />
    <path
       style="fill:none;fill-opacity:1;stroke:#800000;stroke-width:0.55668491;stroke-linecap:butt;stroke-linejoin:miter;stroke-miterlimit:4;stroke-dasharray:none;stroke-dashoffset:0;stroke-opacity:1"
       d="m 125.64702,174.00219 c -0.99652,-0.10577 -2.02038,-0.31419 -2.7003,0.76713"
       id="path4612"
       inkscape:connector-curvature="0"
       sodipodi:nodetypes="cc"
       inkscape:export-filename="C:\Users\juj000o\Documents\Office-Mice\Assets\Main Menu\title.png"
       inkscape:export-xdpi="375.13"
       inkscape:export-ydpi="375.13" />
    <path
       sodipodi:nodetypes="cc"
       inkscape:connector-curvature="0"
       id="path4614"
       d="m 125.88615,174.82458 c -0.99513,0.1182 -2.03968,0.14233 -2.46257,1.34755"
       style="fill:none;fill-opacity:1;stroke:#800000;stroke-width:0.55668491;stroke-linecap:butt;stroke-linejoin:miter;stroke-miterlimit:4;stroke-dasharray:none;stroke-dashoffset:0;stroke-opacity:1"
       inkscape:export-filename="C:\Users\juj000o\Documents\Office-Mice\Assets\Main Menu\title.png"
       inkscape:export-xdpi="375.13"
       inkscape:export-ydpi="375.13" />
    <path
       sodipodi:nodetypes="cc"
       inkscape:connector-curvature="0"
       id="path4616"
       d="m 127.91666,174.00219 c 0.99653,-0.10577 2.02038,-0.31419 2.70032,0.76713"
       style="fill:none;fill-opacity:1;stroke:#800000;stroke-width:0.55668491;stroke-linecap:butt;stroke-linejoin:miter;stroke-miterlimit:4;stroke-dasharray:none;stroke-dashoffset:0;stroke-opacity:1"
       inkscape:export-filename="C:\Users\juj000o\Documents\Office-Mice\Assets\Main Menu\title.png"
       inkscape:export-xdpi="375.13"
       inkscape:export-ydpi="375.13" />
    <path
       style="fill:none;fill-opacity:1;stroke:#800000;stroke-width:0.55668491;stroke-linecap:butt;stroke-linejoin:miter;stroke-miterlimit:4;stroke-dasharray:none;stroke-dashoffset:0;stroke-opacity:1"
       d="m 127.67753,174.82458 c 0.99513,0.1182 2.0397,0.14233 2.46257,1.34755"
       id="path4618"
       inkscape:connector-curvature="0"
       sodipodi:nodetypes="cc"
       inkscape:export-filename="C:\Users\juj000o\Documents\Office-Mice\Assets\Main Menu\title.png"
       inkscape:export-xdpi="375.13"
       inkscape:export-ydpi="375.13" />
    <ellipse
       style="fill:url(#linearGradient4670);fill-opacity:1;stroke:#800000;stroke-width:0.55668491;stroke-linecap:round;stroke-linejoin:round;stroke-miterlimit:4;stroke-dasharray:none;stroke-dashoffset:0;stroke-opacity:1"
       id="path4620"
       cx="26.615246"
       cy="193.43559"
       rx="3.0071614"
       ry="4.2959452"
       transform="rotate(-30)"
       inkscape:export-filename="C:\Users\juj000o\Documents\Office-Mice\Assets\Main Menu\title.png"
       inkscape:export-xdpi="375.13"
       inkscape:export-ydpi="375.13" />
    <ellipse
       transform="matrix(-0.8660254,-0.5,-0.5,0.8660254,0,0)"
       ry="4.2959452"
       rx="3.0071614"
       cy="66.647301"
       cx="-192.98856"
       id="ellipse4622"
       style="fill:url(#linearGradient4668);fill-opacity:1;stroke:#800000;stroke-width:0.55668491;stroke-linecap:round;stroke-linejoin:round;stroke-miterlimit:4;stroke-dasharray:none;stroke-dashoffset:0;stroke-opacity:1"
       inkscape:export-filename="C:\Users\juj000o\Documents\Office-Mice\Assets\Main Menu\title.png"
       inkscape:export-xdpi="375.13"
       inkscape:export-ydpi="375.13" />
  </g>
</svg>
