<?xml version="1.0" encoding="UTF-8" standalone="no"?>
<!-- Created with Inkscape (http://www.inkscape.org/) -->

<svg
   xmlns:dc="http://purl.org/dc/elements/1.1/"
   xmlns:cc="http://creativecommons.org/ns#"
   xmlns:rdf="http://www.w3.org/1999/02/22-rdf-syntax-ns#"
   xmlns:svg="http://www.w3.org/2000/svg"
   xmlns="http://www.w3.org/2000/svg"
   xmlns:sodipodi="http://sodipodi.sourceforge.net/DTD/sodipodi-0.dtd"
   xmlns:inkscape="http://www.inkscape.org/namespaces/inkscape"
   width="297mm"
   height="210mm"
   viewBox="0 0 297 210"
   version="1.1"
   id="svg8"
   inkscape:version="0.92.4 (5da689c313, 2019-01-14)"
   sodipodi:docname="officemouse.svg">
  <defs
     id="defs2">
    <filter
       inkscape:collect="always"
       style="color-interpolation-filters:sRGB"
       id="filter1397"
       x="-0.021784366"
       width="1.0435687"
       y="-0.026717356"
       height="1.0534347">
      <feGaussianBlur
         inkscape:collect="always"
         stdDeviation="1.8000603"
         id="feGaussianBlur1399" />
    </filter>
    <filter
       inkscape:collect="always"
       style="color-interpolation-filters:sRGB"
       id="filter1633"
       x="-0.047753099"
       width="1.0955062"
       y="-0.028889622"
       height="1.0577792">
      <feGaussianBlur
         inkscape:collect="always"
         stdDeviation="1.6512721"
         id="feGaussianBlur1635" />
    </filter>
    <filter
       inkscape:collect="always"
       style="color-interpolation-filters:sRGB"
       id="filter1681"
       x="-0.021734554"
       width="1.0434691"
       y="-0.048409785"
       height="1.0968196">
      <feGaussianBlur
         inkscape:collect="always"
         stdDeviation="5.7313745"
         id="feGaussianBlur1683" />
    </filter>
  </defs>
  <sodipodi:namedview
     id="base"
     pagecolor="#ffffff"
     bordercolor="#666666"
     borderopacity="1.0"
     inkscape:pageopacity="0.0"
     inkscape:pageshadow="2"
     inkscape:zoom="1.7182695"
     inkscape:cx="421.39536"
     inkscape:cy="426.54891"
     inkscape:document-units="mm"
     inkscape:current-layer="layer1"
     showgrid="false"
     showguides="false"
     inkscape:window-width="2560"
     inkscape:window-height="1377"
     inkscape:window-x="-8"
     inkscape:window-y="-8"
     inkscape:window-maximized="1" />
  <metadata
     id="metadata5">
    <rdf:RDF>
      <cc:Work
         rdf:about="">
        <dc:format>image/svg+xml</dc:format>
        <dc:type
           rdf:resource="http://purl.org/dc/dcmitype/StillImage" />
        <dc:title></dc:title>
      </cc:Work>
    </rdf:RDF>
  </metadata>
  <g
     inkscape:label="Layer 1"
     inkscape:groupmode="layer"
     id="layer1"
     transform="translate(0,-87)">
    <rect
       style="opacity:1;fill:#3c3c78;fill-opacity:1;stroke:none;stroke-width:3;stroke-linecap:butt;stroke-linejoin:miter;stroke-miterlimit:4;stroke-dasharray:none;stroke-dashoffset:0;stroke-opacity:1"
       id="rect815"
       width="265.66589"
       height="165.17258"
       x="1.1765285"
       y="110.73464" />
    <rect
       y="113.7665"
       x="56.193367"
       height="161.69806"
       width="198.314"
       id="rect1295"
       style="opacity:1;fill:#000000;fill-opacity:0.50196078;stroke:none;stroke-width:3;stroke-linecap:butt;stroke-linejoin:miter;stroke-miterlimit:4;stroke-dasharray:none;stroke-dashoffset:0;stroke-opacity:1;filter:url(#filter1397)" />
    <path
       style="fill:#000000;stroke:none;stroke-width:0.01690816;filter:url(#filter1633)"
       inkscape:connector-curvature="0"
       id="path4"
       d="m 53.490883,144.46569 c -0.591786,0.59178 -1.352653,1.52172 -1.690815,2.09661 -1.487918,2.45168 -3.330906,8.62315 -3.855059,12.93473 -0.236714,1.91062 -0.253624,1.82608 0.760866,6.23911 0.439612,1.8768 0.439612,2.01207 0.253622,3.80433 -0.236713,2.07971 -0.152173,3.60144 0.253622,4.98791 0.202898,0.69323 0.270532,1.62318 0.270532,3.63525 0,4.3454 -0.608693,6.44201 -2.164244,7.59176 -0.99758,0.74396 -1.301927,1.38647 -1.978254,4.15941 -0.760867,3.07728 -0.794682,4.81882 -0.185989,9.40094 0.743958,5.56277 0.913041,12.22458 0.405796,15.62312 -0.08454,0.60869 -0.321256,1.62318 -0.507245,2.2826 l -0.355071,1.18358 -0.304347,-0.59179 c -0.169083,-0.33817 -0.473429,-0.62561 -0.693235,-0.69324 -0.321254,-0.0676 -0.388887,-0.18599 -0.355071,-0.59178 0.01691,-0.27053 -0.152173,-1.04831 -0.388888,-1.74155 -0.236714,-0.69323 -0.405795,-1.2681 -0.371979,-1.28502 0.371979,-0.18598 1.809173,-1.53864 1.876805,-1.74153 0.05072,-0.16909 -0.490336,-1.96134 -1.200479,-4.00723 -1.403376,-3.99033 -1.352651,-3.7367 -1.149754,-7.0676 0.08454,-1.55556 0.06763,-1.82608 -0.152174,-1.91062 -0.152172,-0.0507 -0.27053,-0.27054 -0.27053,-0.47344 0,-0.18599 -0.08454,-0.47343 -0.169081,-0.60869 -0.10145,-0.16908 -0.05073,-0.33816 0.185989,-0.55797 0.185989,-0.18599 0.321255,-0.52416 0.321255,-0.86232 0,-0.54106 0.05073,-0.57488 0.760867,-0.76086 0.557969,-0.13527 0.828499,-0.32126 0.963764,-0.60869 0.355072,-0.77778 -0.01691,-0.87923 -1.471009,-0.42271 -0.710142,0.2198 -1.318836,0.47342 -1.36956,0.54106 -0.152173,0.23672 -0.439611,0.15218 -0.355072,-0.10145 -1.187028,-2.61665 -1.129874,-5.07983 2.265694,-5.78259 0.321254,-0.0676 0.625601,-0.2198 0.676326,-0.33816 0.05073,-0.11836 -0.135267,-0.84541 -0.405796,-1.58937 -0.405796,-1.18357 -0.524152,-1.35265 -0.811592,-1.26811 -1.893712,0.52416 -2.417865,0.28744 -3.111099,-1.38646 -0.693235,-1.6401 -0.963766,-1.96135 -1.538642,-1.82608 l -2.789862,-7.37196 0.659419,-0.76087 1.115938,-0.92994 -1.775357,0.0845 -1.26811,1.11593 -0.05073,-0.33816 -1.055483,-3.95003 -2.458152,-0.76611 -4.467014,-9.35148 -4.362303,-12.17387 -1.961346,0.10145 3.139813,11.44699 -2.267683,6.34002 3.21925,8.12525 0.964158,2.59488 0.896132,-0.18599 -0.896132,0.18599 -3.287518,1.90208 0.668174,3.47451 c 2.615406,1.6035 4.920122,1.32995 1.85848,4.43015 -1.487918,1.42028 0.27053,0 0,0 -0.321255,0 -0.405796,0.10143 -0.45652,0.49033 -0.03382,0.38888 -0.642511,0.96376 -3.432355,3.24636 -1.859897,1.53864 -3.584529,2.90821 -3.855059,3.07729 -0.253623,0.16907 -0.456521,0.4227 -0.456521,0.55797 0,0.45652 3.136741,4.49844 3.559444,4.49844 0,0 1.553147,-0.96667 3.550713,-2.62076 2.612031,-1.70861 2.612031,-1.70861 2.612031,-1.70861 0.524152,1.47102 1.09903,2.9082 1.301927,3.19565 0.913041,1.25121 3.601437,4.31157 3.787427,4.31157 0.304346,0 0.913041,0.82851 0.811592,1.08213 -0.05073,0.13527 0.118356,0.38888 0.371978,0.59179 0.37198,0.30434 0.55797,0.74395 1.099031,2.85747 0.574877,2.2826 1.859896,6.52655 2.671487,8.85987 l 0.338163,0.98067 -0.845407,0.71014 -0.828499,0.72705 v 1.08213 c 0,0.94685 0.03382,1.04831 0.304346,0.94685 0.152174,-0.0676 0.625602,-0.16908 1.031397,-0.2198 1.014489,-0.11836 0.862316,0.2198 -0.321254,0.69323 -0.845408,0.33817 -0.929948,0.4227 -0.980673,0.92995 -0.06763,0.6087 0.608694,1.94443 1.065214,2.13043 0.135265,0.0507 0.524153,-0.0507 0.845407,-0.23671 0.321255,-0.18599 0.608693,-0.33817 0.64251,-0.32126 0.08454,0.0169 0.72705,-0.21981 1.014489,-0.37198 0.253623,-0.13526 0.355071,0 0.74396,0.89613 1.809171,4.24395 3.956507,7.2536 6.560363,9.21495 2.130428,1.60628 3.533804,1.97825 4.345395,1.14975 0.507244,-0.50724 3.486265,-4.49297 4.405239,-8.75254 0.332232,-1.53994 0.896938,-3.12853 1.359607,-5.26132 0.923808,-4.25853 1.04054,-3.83646 1.332745,-6.77801 0.21504,-2.16473 -0.255662,-3.95063 0.09941,-3.57866 0.253623,0.27054 1.367769,3.61397 1.508659,6.60606 0.145819,3.09677 0.149839,3.77047 0.08346,5.56279 -0.06888,1.85984 -0.306034,3.08929 -1.924406,7.12924 -1.187997,2.9656 -5.512057,9.11349 -5.900945,16.29945 -0.287439,5.30917 -0.135266,8.94442 0.507244,12.61349 0.304347,1.67391 0.72705,4.44684 0.963765,6.17148 0.236714,1.72463 1.352653,16.37397 1.352653,16.37397 81.268703,4.50618 28.972092,-8.19569 28.833468,-118.44195 0,-5.5966 -3.961579,-6.49924 -5.094424,-8.79876 -1.251205,-2.53622 -4.632833,-5.59659 -7.388864,-6.72944 -3.043462,-1.23429 -9.789813,-2.45168 -13.560333,-2.45168 h -1.014489 z m -15.183521,38.65203 c 0,0.0676 -0.137833,0.10743 -0.28744,0.13526 l -0.72705,0.13527 -0.101449,-0.13527 c 0.355072,-0.28743 1.115939,-0.37198 1.115939,-0.13526 z m 2.705303,12.54588 c 0,0.0845 -0.08454,0.16908 -0.185989,0.16908 -0.08454,0 -0.118357,-0.0845 -0.06764,-0.16908 0.05073,-0.10145 0.135265,-0.16908 0.185989,-0.16908 0.03381,0 0.06764,0.0676 0.06764,0.16908 z m -10.770493,3.46617 0.710142,0.60869 -0.422703,0.32126 c -0.236715,0.18599 -0.507245,0.33817 -0.625603,0.33817 -0.118357,0 -0.557969,-0.43962 -0.980672,-0.96377 -0.541062,-0.65942 -0.760867,-1.06522 -0.693235,-1.30193 0.03382,-0.2029 0.135266,-0.64251 0.202898,-0.99758 l 0.118358,-0.65942 0.490336,1.0314 c 0.287439,0.59178 0.777775,1.26811 1.200479,1.62318 z m 10.195617,5.93475 c 0.896131,2.58696 1.64009,4.88646 1.64009,5.12318 0,0.38888 -0.862315,1.36956 -1.200479,1.36956 -0.06764,0 -0.287438,-0.4058 -0.490335,-0.89613 -1.479397,-3.55488 -1.026059,-4.2206 0.05072,-5.59661 z"
       sodipodi:nodetypes="ccccccscccccccccccccccsccscccccccccccccccccccccccccccccccscccsscccscccccccscccccccccccssscsssccsccccsccssccssscsscccscccccccssccc" />
    <rect
       style="opacity:1;fill:#afafe9;fill-opacity:1;stroke:none;stroke-width:3;stroke-linecap:butt;stroke-linejoin:miter;stroke-miterlimit:4;stroke-dasharray:none;stroke-dashoffset:0;stroke-opacity:1"
       id="rect817"
       width="198.314"
       height="161.69806"
       x="70.291885"
       y="113.65311" />
    <path
       style="opacity:1;fill:#575774;fill-opacity:1;stroke:none;stroke-width:11.07324696;stroke-linecap:butt;stroke-linejoin:miter;stroke-miterlimit:4;stroke-dasharray:none;stroke-dashoffset:0;stroke-opacity:1;filter:url(#filter1681)"
       d="m 466.67773,427.73633 c -1.07176,0 -2.14197,0.0909 -2.625,0.22656 h -0.002 c -1.97745,0.5283 -4.08946,1.6287 -5.35742,2.79102 -0.80001,0.72453 -2.00774,2.44728 -2.33984,3.33789 -0.0907,0.22639 -0.57467,1.2523 -1.0879,2.26367 -1.4491,2.89822 -1.49357,3.09478 -1.64453,6.46094 -0.0756,1.61514 -0.13527,3.18391 -0.15039,3.4707 0,0.51322 -0.0762,0.57497 -1.63086,1.54101 -4.15109,2.56615 -7.60852,5.5995 -9.58593,8.37696 -1.8567,2.61142 -6.23441,10.34049 -9.07227,16.03125 -1.05664,2.09817 -2.38341,4.6493 -2.95703,5.67578 -0.57362,1.01133 -1.20806,2.24744 -1.4043,2.73047 -0.21127,0.48306 -0.49803,0.95241 -0.66406,1.04297 -1.38871,0.75473 -2.09873,1.96176 -1.96289,3.32031 0.0454,0.43774 0.18179,0.99677 0.30273,1.23828 0.34734,0.66418 1.14619,1.37213 1.75,1.56836 0.30199,0.10583 0.64878,0.31896 0.76953,0.5 1.1774,1.69062 3.35254,3.06378 6.16016,3.87891 2.43028,0.72453 7.99979,1.11707 10.21875,0.72461 0.92077,-0.15081 0.93491,-0.15162 2.80664,0.58789 1.02648,0.42266 1.91812,0.72496 1.97852,0.67968 0.0756,-0.0302 0.12109,-0.18085 0.12109,-0.33203 0,-0.21127 -0.37874,-0.42307 -1.48047,-0.8457 l -1.47851,-0.57422 1.05664,-1.02539 c 1.32835,-1.28307 2.56499,-1.78159 4.69336,-1.90234 2.11328,-0.12057 2.46153,0.031 4.09179,1.6914 1.55475,1.58499 2.39913,2.08256 5.64453,3.32031 1.78118,0.66418 5.60168,2.37052 5.99415,2.6875 0.30198,0.2264 -0.166,0.95026 -0.72461,1.14649 -0.86041,0.30198 -3.32142,0.19649 -5.29883,-0.21094 -3.5624,-0.73965 -6.68797,-0.3027 -8.0918,1.14649 -0.24452,0.2517 -0.70283,1.00063 -1.10156,1.72656 h -71.2793 v 39.28516 h 41.95899 V 711.87891 H 1015.2031 V 538.29688 501.01172 H 558.13867 c 0.26094,-0.37612 0.42643,-0.79799 0.4375,-1.21289 0.0151,-0.73966 -0.28806,-1.22221 -1.14844,-1.76563 -0.84529,-0.54342 -1.10013,-1.02762 -1.28125,-2.37109 l -0.12109,-0.89063 1.96094,-1.23828 c 1.0868,-0.66417 2.70263,-1.74992 3.57812,-2.41406 l 1.58594,-1.17773 4.22656,-0.19532 c 5.25302,-0.24151 18.58188,-0.24151 20.63477,0 0.83025,0.0907 2.65531,0.39185 4.07422,0.64844 3.45672,0.63398 6.3564,0.69396 8.10742,0.15039 2.49067,-0.78493 6.52056,-3.17055 9.88672,-5.85742 1.69062,-1.34347 8.98047,-8.54289 8.98047,-8.875 0,-0.10583 -0.19592,-0.37693 -0.4375,-0.60352 l -0.45313,-0.4375 -1.1914,1.08594 c -1.55475,1.41895 -2.17463,1.82779 -5.8125,3.82031 -3.41144,1.87174 -3.863,2.15742 -5.68946,3.63672 -2.47555,1.99249 -3.86462,2.36937 -7.51758,2.09766 -1.13212,-0.0907 -3.01932,-0.36037 -4.18164,-0.61719 -1.85665,-0.39246 -4.34757,-0.71125 -7.84961,-0.99804 -0.57358,-0.0454 -2.79296,-0.23983 -4.90625,-0.45118 -2.11328,-0.19615 -5.26656,-0.46908 -7.01757,-0.58984 -1.7359,-0.13569 -3.98618,-0.37675 -4.98243,-0.54297 -0.99624,-0.18104 -2.55185,-0.34672 -3.47265,-0.37695 l -1.66016,-0.0762 -1.75,-1.76563 c -2.12836,-2.15856 -2.27976,-2.47584 -2.62695,-5.73633 -0.40755,-3.71335 -1.85682,-8.71008 -3.39649,-11.74414 -2.71706,-5.35869 -8.21147,-11.84981 -13.50976,-15.9707 -2.385,-1.85669 -9.25343,-6.32455 -13.13281,-8.55859 -7.71345,-4.45297 -19.3807,-7.84888 -27.77344,-8.10547 -2.47555,-0.0756 -2.83838,-0.0613 -4.07617,0.25586 -1.84158,0.46794 -3.47292,1.19254 -6.3711,2.83789 -3.63787,2.08308 -4.3459,2.3859 -9.52343,4.03125 l -0.63477,0.21093 -0.36133,-0.70898 c -0.19616,-0.39247 -0.54509,-1.20727 -0.77148,-1.82617 -0.51326,-1.37363 -1.23738,-2.20448 -2.32422,-2.6875 -0.73965,-0.33222 -3.7724,-0.95117 -4.63281,-0.95117 -0.19616,0 -0.36329,-0.0596 -0.36329,-0.13477 0,-0.0756 -0.27144,-0.54432 -0.60351,-1.02734 -1.10192,-1.66046 -2.35552,-2.15766 -5.35938,-2.14258 z m 87.38477,72.91211 c 0.0255,0.007 0.11991,0.16648 0.22656,0.36328 h -0.17187 c -0.0222,-0.10779 -0.0276,-0.19411 -0.0547,-0.3086 -0.0113,-0.0415 -0.0111,-0.0578 0,-0.0547 z"
       transform="matrix(0.29388657,0,0,0.26458333,-21.735632,88.663094)"
       id="rect819"
       inkscape:connector-curvature="0" />
    <rect
       style="opacity:1;fill:none;fill-opacity:1;stroke:#000000;stroke-width:2.29532433;stroke-linecap:butt;stroke-linejoin:miter;stroke-miterlimit:4;stroke-dasharray:none;stroke-dashoffset:0;stroke-opacity:1"
       id="rect1685"
       width="198.9281"
       height="149.19608"
       x="16.734978"
       y="119.40499" />
  </g>
</svg>
